P3 
20 20 
255 
0 0 0 
0 0 0 
0 0 0 
0 0 0 
0 0 0 
0 0 0 
0 0 0 
0 0 0 
0 0 0 
0 0 0 
0 0 0 
0 0 0 
0 0 0 
0 0 0 
0 0 0 
0 0 0 
0 0 0 
0 0 0 
0 0 0 
0 0 0 
0 0 0 
1 1 1 
2 2 2 
3 3 3 
4 4 4 
5 5 5 
6 6 6 
7 7 7 
8 8 8 
9 9 9 
10 10 10 
11 11 11 
12 12 12 
13 13 13 
14 14 14 
15 15 15 
16 16 16 
17 17 17 
18 18 18 
19 19 19 
0 0 0 
2 2 2 
4 4 4 
6 6 6 
8 8 8 
10 10 10 
12 12 12 
14 14 14 
16 16 16 
18 18 18 
20 20 20 
22 22 22 
24 24 24 
26 26 26 
28 28 28 
30 30 30 
32 32 32 
34 34 34 
36 36 36 
38 38 38 
0 0 0 
3 3 3 
6 6 6 
9 9 9 
12 12 12 
15 15 15 
18 18 18 
21 21 21 
24 24 24 
27 27 27 
30 30 30 
33 33 33 
36 36 36 
39 39 39 
42 42 42 
45 45 45 
48 48 48 
51 51 51 
54 54 54 
57 57 57 
0 0 0 
4 4 4 
8 8 8 
12 12 12 
16 16 16 
20 20 20 
24 24 24 
28 28 28 
32 32 32 
36 36 36 
40 40 40 
44 44 44 
48 48 48 
52 52 52 
56 56 56 
60 60 60 
64 64 64 
68 68 68 
72 72 72 
76 76 76 
0 0 0 
5 5 5 
10 10 10 
15 15 15 
20 20 20 
25 25 25 
30 30 30 
35 35 35 
40 40 40 
45 45 45 
50 50 50 
55 55 55 
60 60 60 
65 65 65 
70 70 70 
75 75 75 
80 80 80 
85 85 85 
90 90 90 
95 95 95 
0 0 0 
6 6 6 
12 12 12 
18 18 18 
24 24 24 
30 30 30 
36 36 36 
42 42 42 
48 48 48 
54 54 54 
60 60 60 
66 66 66 
72 72 72 
78 78 78 
84 84 84 
90 90 90 
96 96 96 
102 102 102 
108 108 108 
114 114 114 
0 0 0 
7 7 7 
14 14 14 
21 21 21 
28 28 28 
35 35 35 
42 42 42 
49 49 49 
56 56 56 
63 63 63 
70 70 70 
77 77 77 
84 84 84 
91 91 91 
98 98 98 
105 105 105 
112 112 112 
119 119 119 
126 126 126 
133 133 133 
0 0 0 
8 8 8 
16 16 16 
24 24 24 
32 32 32 
40 40 40 
48 48 48 
56 56 56 
64 64 64 
72 72 72 
80 80 80 
88 88 88 
96 96 96 
104 104 104 
112 112 112 
120 120 120 
128 128 128 
136 136 136 
144 144 144 
152 152 152 
0 0 0 
9 9 9 
18 18 18 
27 27 27 
36 36 36 
45 45 45 
54 54 54 
63 63 63 
72 72 72 
81 81 81 
90 90 90 
99 99 99 
108 108 108 
117 117 117 
126 126 126 
135 135 135 
144 144 144 
153 153 153 
162 162 162 
171 171 171 
0 0 0 
10 10 10 
20 20 20 
30 30 30 
40 40 40 
50 50 50 
60 60 60 
70 70 70 
80 80 80 
90 90 90 
100 100 100 
110 110 110 
120 120 120 
130 130 130 
140 140 140 
150 150 150 
160 160 160 
170 170 170 
180 180 180 
190 190 190 
0 0 0 
11 11 11 
22 22 22 
33 33 33 
44 44 44 
55 55 55 
66 66 66 
77 77 77 
88 88 88 
99 99 99 
110 110 110 
121 121 121 
132 132 132 
143 143 143 
154 154 154 
165 165 165 
176 176 176 
187 187 187 
198 198 198 
209 209 209 
0 0 0 
12 12 12 
24 24 24 
36 36 36 
48 48 48 
60 60 60 
72 72 72 
84 84 84 
96 96 96 
108 108 108 
120 120 120 
132 132 132 
144 144 144 
156 156 156 
168 168 168 
180 180 180 
192 192 192 
204 204 204 
216 216 216 
228 228 228 
0 0 0 
13 13 13 
26 26 26 
39 39 39 
52 52 52 
65 65 65 
78 78 78 
91 91 91 
104 104 104 
117 117 117 
130 130 130 
143 143 143 
156 156 156 
169 169 169 
182 182 182 
195 195 195 
208 208 208 
221 221 221 
234 234 234 
247 247 247 
0 0 0 
14 14 14 
28 28 28 
42 42 42 
56 56 56 
70 70 70 
84 84 84 
98 98 98 
112 112 112 
126 126 126 
140 140 140 
154 154 154 
168 168 168 
182 182 182 
196 196 196 
210 210 210 
224 224 224 
238 238 238 
252 252 252 
11 11 11 
0 0 0 
15 15 15 
30 30 30 
45 45 45 
60 60 60 
75 75 75 
90 90 90 
105 105 105 
120 120 120 
135 135 135 
150 150 150 
165 165 165 
180 180 180 
195 195 195 
210 210 210 
225 225 225 
240 240 240 
0 0 0 
15 15 15 
30 30 30 
0 0 0 
16 16 16 
32 32 32 
48 48 48 
64 64 64 
80 80 80 
96 96 96 
112 112 112 
128 128 128 
144 144 144 
160 160 160 
176 176 176 
192 192 192 
208 208 208 
224 224 224 
240 240 240 
1 1 1 
17 17 17 
33 33 33 
49 49 49 
0 0 0 
17 17 17 
34 34 34 
51 51 51 
68 68 68 
85 85 85 
102 102 102 
119 119 119 
136 136 136 
153 153 153 
170 170 170 
187 187 187 
204 204 204 
221 221 221 
238 238 238 
0 0 0 
17 17 17 
34 34 34 
51 51 51 
68 68 68 
0 0 0 
18 18 18 
36 36 36 
54 54 54 
72 72 72 
90 90 90 
108 108 108 
126 126 126 
144 144 144 
162 162 162 
180 180 180 
198 198 198 
216 216 216 
234 234 234 
252 252 252 
15 15 15 
33 33 33 
51 51 51 
69 69 69 
87 87 87 
0 0 0 
19 19 19 
38 38 38 
57 57 57 
76 76 76 
95 95 95 
114 114 114 
133 133 133 
152 152 152 
171 171 171 
190 190 190 
209 209 209 
228 228 228 
247 247 247 
11 11 11 
30 30 30 
49 49 49 
68 68 68 
87 87 87 
106 106 106 
